<svg width="375" height="64" viewBox="0 0 375 64" fill="none" xmlns="http://www.w3.org/2000/svg">
<path d="M-166 28.2117H-18.9734H6.37958C6.37958 28.2117 19.965 28.2117 40.2611 28.2117C60.5572 28.2117 52.7438 7.65772 70.5761 7.65772C88.4085 7.65772 85.4364 63 99.1079 63C112.779 63 110.996 15.1477 126.451 15.1477C141.906 15.1477 138.934 54.6779 150.227 54.6779C161.521 54.6779 162.71 21.3893 176.382 21.3893C190.053 21.3893 179.354 39.2819 192.431 39.2819C205.508 39.2819 203.13 21.3893 214.424 21.3893C225.718 21.3893 223.934 56.7584 233.445 56.7584C242.956 56.7584 245.928 15.1477 261.382 15.1477C276.837 15.1477 280.404 52.1812 294.075 52.1812C307.747 52.1812 304.775 1 318.446 1C332.118 1 330.334 31.3758 361.244 31.3758C392.153 31.3758 451 31.3758 451 31.3758" stroke="url(#paint0_linear)" stroke-width="2"/>
<defs>
<linearGradient id="paint0_linear" x1="-22.4563" y1="27.6421" x2="402.55" y2="-12.5217" gradientUnits="userSpaceOnUse">
<stop stop-color="#FC70ED"/>
<stop offset="0.420891" stop-color="#FC70ED" stop-opacity="0"/>
<stop offset="0.495769" stop-color="#70FCF4" stop-opacity="0"/>
<stop offset="1" stop-color="#70FCF4"/>
</linearGradient>
</defs>
</svg>
