<?xml version="1.0" encoding="UTF-8" standalone="no"?>
<!-- Created with Inkscape (http://www.inkscape.org/) -->

<svg
   xmlns:dc="http://purl.org/dc/elements/1.1/"
   xmlns:cc="http://creativecommons.org/ns#"
   xmlns:rdf="http://www.w3.org/1999/02/22-rdf-syntax-ns#"
   xmlns:svg="http://www.w3.org/2000/svg"
   xmlns="http://www.w3.org/2000/svg"
   xmlns:xlink="http://www.w3.org/1999/xlink"
   xmlns:sodipodi="http://sodipodi.sourceforge.net/DTD/sodipodi-0.dtd"
   xmlns:inkscape="http://www.inkscape.org/namespaces/inkscape"
   width="772.03998"
   height="772.03998"
   id="svg2"
   version="1.1"
   inkscape:version="0.48.2 r9819"
   sodipodi:docname="шар1.svg">
  <defs
     id="defs4">
    <linearGradient
       inkscape:collect="always"
       id="linearGradient3892">
      <stop
         style="stop-color:#ffffff;stop-opacity:1;"
         offset="0"
         id="stop3894" />
      <stop
         style="stop-color:#ffffff;stop-opacity:0;"
         offset="1"
         id="stop3896" />
    </linearGradient>
    <linearGradient
       id="linearGradient3769"
       inkscape:collect="always">
      <stop
         id="stop3771"
         offset="0"
         style="stop-color:#999999;stop-opacity:0" />
      <stop
         id="stop3773"
         offset="1"
         style="stop-color:#000000;stop-opacity:1" />
    </linearGradient>
    <radialGradient
       inkscape:collect="always"
       xlink:href="#linearGradient3769"
       id="radialGradient3793"
       cx="344.43781"
       cy="443.44409"
       fx="344.43781"
       fy="443.44409"
       r="134.3503"
       gradientUnits="userSpaceOnUse"
       gradientTransform="matrix(1.0977446,-0.01503755,0.01596302,1.165304,-41.731584,-72.368088)" />
    <radialGradient
       inkscape:collect="always"
       xlink:href="#linearGradient3769"
       id="radialGradient3797"
       gradientUnits="userSpaceOnUse"
       gradientTransform="matrix(1.067696,-4.4267083e-4,4.7693049e-4,1.1503513,-22.005563,-70.15154)"
       cx="372.34354"
       cy="487.70645"
       fx="372.34354"
       fy="487.70645"
       r="134.3503" />
    <filter
       inkscape:collect="always"
       id="filter3813"
       x="-0.35037288"
       width="1.7007458"
       y="-0.26352936"
       height="1.5270587"
       color-interpolation-filters="sRGB">
      <feGaussianBlur
         inkscape:collect="always"
         stdDeviation="11.083103"
         id="feGaussianBlur3815" />
    </filter>
    <filter
       inkscape:collect="always"
       id="filter3852"
       x="-0.26740304"
       width="1.5348061"
       y="-0.45334214"
       height="1.9066843"
       color-interpolation-filters="sRGB">
      <feGaussianBlur
         inkscape:collect="always"
         stdDeviation="3.5452963"
         id="feGaussianBlur3854" />
    </filter>
    <filter
       inkscape:collect="always"
       id="filter3880"
       x="-0.2617332"
       width="1.5234663"
       y="-0.2045728"
       height="1.4091456"
       color-interpolation-filters="sRGB">
      <feGaussianBlur
         inkscape:collect="always"
         stdDeviation="1.8727642"
         id="feGaussianBlur3882" />
    </filter>
    <filter
       inkscape:collect="always"
       id="filter3884"
       x="-0.25804681"
       width="1.5160936"
       y="-0.20169149"
       height="1.403383"
       color-interpolation-filters="sRGB">
      <feGaussianBlur
         inkscape:collect="always"
         stdDeviation="1.8463873"
         id="feGaussianBlur3886" />
    </filter>
    <linearGradient
       inkscape:collect="always"
       xlink:href="#linearGradient3892"
       id="linearGradient3898"
       x1="349.69012"
       y1="418.27814"
       x2="299.33289"
       y2="410.1969"
       gradientUnits="userSpaceOnUse" />
    <filter
       inkscape:collect="always"
       id="filter3904"
       x="-0.25611812"
       width="1.5122362"
       y="-0.28929639"
       height="1.5785928"
       color-interpolation-filters="sRGB">
      <feGaussianBlur
         inkscape:collect="always"
         stdDeviation="20.457851"
         id="feGaussianBlur3906" />
    </filter>
    <filter
       inkscape:collect="always"
       id="filter3914"
       x="-0.11309111"
       width="1.2261822"
       y="-0.14260711"
       height="1.2852142"
       color-interpolation-filters="sRGB">
      <feGaussianBlur
         inkscape:collect="always"
         stdDeviation="8.619243"
         id="feGaussianBlur3916" />
    </filter>
    <filter
       inkscape:collect="always"
       id="filter3792"
       x="-0.084208913"
       width="1.1684178"
       y="-0.4264774"
       height="1.8529547"
       color-interpolation-filters="sRGB">
      <feGaussianBlur
         inkscape:collect="always"
         stdDeviation="5.5645934"
         id="feGaussianBlur3794" />
    </filter>
    <filter
       inkscape:collect="always"
       id="filter3788"
       x="-0.10657194"
       width="1.2131439"
       y="-0.18730487"
       height="1.3746097">
      <feGaussianBlur
         inkscape:collect="always"
         stdDeviation="3.3445481"
         id="feGaussianBlur3790" />
    </filter>
  </defs>
  <sodipodi:namedview
     id="base"
     pagecolor="#ffffff"
     bordercolor="#666666"
     borderopacity="1.0"
     inkscape:pageopacity="0.0"
     inkscape:pageshadow="2"
     inkscape:zoom="0.7"
     inkscape:cx="274.00764"
     inkscape:cy="390.61087"
     inkscape:document-units="px"
     inkscape:current-layer="layer1"
     showgrid="false"
     inkscape:window-width="1440"
     inkscape:window-height="829"
     inkscape:window-x="0"
     inkscape:window-y="0"
     inkscape:window-maximized="1"
     fit-margin-top="10"
     fit-margin-left="10"
     fit-margin-right="10"
     fit-margin-bottom="10" />
  <metadata
     id="metadata7">
    <rdf:RDF>
      <cc:Work
         rdf:about="">
        <dc:format>image/svg+xml</dc:format>
        <dc:type
           rdf:resource="http://purl.org/dc/dcmitype/StillImage" />
        <dc:title />
      </cc:Work>
    </rdf:RDF>
  </metadata>
  <g
     inkscape:label="Layer 1"
     inkscape:groupmode="layer"
     id="layer1"
     transform="translate(10.097768,-137.19582)">
    <path
       sodipodi:type="arc"
       style="opacity:0.9400545;fill:#000000;fill-opacity:1;stroke:none;filter:url(#filter3792)"
       id="path3938"
       sodipodi:cx="347.99756"
       sodipodi:cy="670.01947"
       sodipodi:rx="79.296974"
       sodipodi:ry="15.657365"
       d="m 427.29453,670.01947 c 0,8.64732 -35.50246,15.65737 -79.29697,15.65737 -43.79451,0 -79.29698,-7.01005 -79.29698,-15.65737 0,-8.64732 35.50247,-15.65736 79.29698,-15.65736 43.79451,0 79.29697,7.01004 79.29697,15.65736 z"
       transform="matrix(2.6533092,0,0,4.2288002,-450.37885,-2022.5445)" />
    <path
       sodipodi:type="arc"
       style="fill:#999999;fill-opacity:1;stroke:none"
       id="path2985"
       sodipodi:cx="373.75644"
       sodipodi:cy="491.72751"
       sodipodi:rx="134.3503"
       sodipodi:ry="134.3503"
       d="m 508.10674,491.72751 c 0,74.19962 -60.15068,134.35029 -134.3503,134.35029 -74.19962,0 -134.3503,-60.15067 -134.3503,-134.35029 0,-74.19962 60.15068,-134.3503 134.3503,-134.3503 74.19962,0 134.3503,60.15068 134.3503,134.3503 z"
       transform="matrix(2.5941131,0,0,2.5941131,-594.97484,-778.27112)" />
    <path
       d="m 508.10674,491.72751 c 0,74.19962 -60.15068,134.35029 -134.3503,134.35029 -74.19962,0 -134.3503,-60.15067 -134.3503,-134.35029 0,-74.19962 60.15068,-134.3503 134.3503,-134.3503 74.19962,0 134.3503,60.15068 134.3503,134.3503 z"
       sodipodi:ry="134.3503"
       sodipodi:rx="134.3503"
       sodipodi:cy="491.72751"
       sodipodi:cx="373.75644"
       id="path3785"
       style="fill:url(#radialGradient3793);fill-opacity:1;stroke:none"
       sodipodi:type="arc"
       transform="matrix(2.5941131,0,0,2.5941131,-594.97484,-778.27112)" />
    <path
       sodipodi:type="arc"
       style="fill:url(#radialGradient3797);fill-opacity:1;stroke:none"
       id="path3795"
       sodipodi:cx="373.75644"
       sodipodi:cy="491.72751"
       sodipodi:rx="134.3503"
       sodipodi:ry="134.3503"
       d="m 508.10674,491.72751 c 0,74.19962 -60.15068,134.35029 -134.3503,134.35029 -74.19962,0 -134.3503,-60.15067 -134.3503,-134.35029 0,-74.19962 60.15068,-134.3503 134.3503,-134.3503 74.19962,0 134.3503,60.15068 134.3503,134.3503 z"
       transform="matrix(2.5941131,0,0,2.5941131,-594.97484,-778.27112)" />
    <path
       style="fill:#ffffff;stroke:none;filter:url(#filter3813)"
       d="m 295.97469,488.69706 c -28.68557,-18.15322 2.46436,-92.50982 45.45686,-74.75128 31.16725,12.87398 21.54838,17.84443 8.08123,46.46702 -11.18769,23.77792 -21.16421,48.77157 -53.53809,28.28426 z"
       id="path3799"
       inkscape:connector-curvature="0"
       sodipodi:nodetypes="ssss"
       transform="matrix(2.5941131,0,0,2.5941131,-594.97484,-778.27112)" />
    <path
       sodipodi:nodetypes="sssss"
       inkscape:connector-curvature="0"
       id="path3811"
       d="m 284.35793,547.28592 c -21.69182,-16.01389 43.95343,-14.87532 83.72003,-57.21956 36.97577,-39.37251 54.16036,-82.54167 78.40945,-70.56474 30.23466,14.93327 40.56041,94.74559 -10.10151,139.90613 -65.13471,58.06174 -121.20546,10.63275 -152.02797,-12.12183 z"
       style="opacity:0.59128065;fill:#000000;fill-opacity:1;stroke:none;filter:url(#filter3904)"
       transform="matrix(2.5941131,0,0,2.5941131,-594.97484,-778.27112)" />
    <path
       style="opacity:0.3787466;fill:#f2f2f2;stroke:none;filter:url(#filter3852)"
       d="m 280.82241,486.42421 c 8.92514,34.62281 27.71203,6.4479 37.88072,2.52539 z"
       id="path3834"
       inkscape:connector-curvature="0"
       sodipodi:nodetypes="ccc"
       transform="matrix(2.5941131,0,0,2.5941131,-594.97484,-778.27112)" />
    <path
       style="fill:#ffffff;stroke:none;filter:url(#filter3884)"
       d="m 267.56416,457.5086 c 3.67194,7.20123 7.98909,17.63828 17.04631,24.1174 l -15.90989,-8.83884 c 1.157,-4.06898 -0.44429,-9.97683 -1.13642,-15.27856 z"
       id="path3856"
       inkscape:connector-curvature="0"
       sodipodi:nodetypes="cccc"
       transform="matrix(2.5941131,0,0,2.5941131,-594.97484,-778.27112)" />
    <path
       sodipodi:nodetypes="ccccc"
       inkscape:connector-curvature="0"
       id="path3874"
       d="m 276.02419,431.24463 c 2.7441,3.27982 5.41045,8.51205 9.72271,9.59645 -5.48671,5.48068 -7.89466,9.04132 -7.32361,16.54125 -1.40848,-3.62605 -3.23152,-6.67171 -6.31344,-7.95495 2.1502,-3.8202 3.11101,-10.65868 3.91434,-18.18275 z"
       style="fill:#ffffff;stroke:none;filter:url(#filter3880)"
       transform="matrix(2.5941131,0,0,2.5941131,-594.97484,-778.27112)" />
    <path
       style="fill:#ffffff;stroke:none;filter:url(#filter3880)"
       d="m 292.43918,415.71354 c 2.7441,3.27982 -0.14539,5.48159 4.16687,6.56599 -5.48671,5.48068 -5.87435,1.08637 -5.3033,8.5863 -1.40848,-3.62605 -0.70614,-6.79798 -3.78806,-8.08122 2.1502,-3.8202 4.12116,0.453 4.92449,-7.07107 z"
       id="path3888"
       inkscape:connector-curvature="0"
       sodipodi:nodetypes="ccccc"
       transform="matrix(2.5941131,0,0,2.5941131,-594.97484,-778.27112)" />
    <path
       style="opacity:0.78474115;fill:url(#linearGradient3898);fill-opacity:1;stroke:none;filter:url(#filter3880)"
       d="m 311.37953,407.2535 c 4.29023,-2.89807 33.31358,-3.86052 36.49176,1.76778 -3.4664,6.49083 -6.1269,7.02101 -5.55585,14.52094 -1.7377,-5.93059 -32.36501,-10.34343 -35.10278,-9.21764 2.1502,-3.8202 3.36354,0.45299 4.16687,-7.07108 z"
       id="path3890"
       inkscape:connector-curvature="0"
       sodipodi:nodetypes="ccccc"
       transform="matrix(2.5941131,0,0,2.5941131,-594.97484,-778.27112)" />
    <path
       sodipodi:nodetypes="sssss"
       inkscape:connector-curvature="0"
       id="path3908"
       d="m 307.27456,579.91409 c 7.85009,-17.13175 29.19055,29.61843 119.18055,-9.13686 56.93411,-24.51937 59.55819,-120.05013 59.33418,-109.25637 -0.30157,14.53053 25.63435,97.71696 -41.40808,136.33403 -91.15726,52.50745 -144.00989,-2.87541 -137.10665,-17.9408 z"
       style="opacity:0.41100003;fill:#6e6e6e;fill-opacity:1;stroke:none;filter:url(#filter3914)"
       transform="matrix(2.5941131,0,0,2.5941131,-594.97484,-778.27112)" />
    <path
       style="opacity:0.49318801000000001;fill:#9494a6;fill-opacity:1;stroke:none;filter:url(#filter3788)"
       d="m 393.51262,617.23154 c -9.64482,-0.72889 15.03395,-5.04466 35.67707,-16.77864 23.30687,-13.24812 39.43216,-33.58 37.29901,-22.99676 -2.82695,14.02546 -18.85599,18.33421 -31.56383,26.68476 -16.65736,10.94585 -30.31017,13.92967 -41.41225,13.09064 z"
       id="path3817"
       inkscape:connector-curvature="0"
       sodipodi:nodetypes="sssss"
       transform="matrix(2.5941131,0,0,2.5941131,-594.97484,-778.27112)" />
  </g>
</svg>
